G75*
%MOIN*%
%OFA0B0*%
%FSLAX25Y25*%
%IPPOS*%
%LPD*%
%AMOC8*
5,1,8,0,0,1.08239X$1,22.5*
%
%ADD10R,0.04737X0.05131*%
%ADD11C,0.01990*%
%ADD12C,0.08200*%
%ADD13R,0.08674X0.05524*%
%ADD14R,0.06115X0.03162*%
%ADD15R,0.05131X0.04737*%
%ADD16C,0.13800*%
%ADD17R,0.03300X0.05800*%
%ADD18C,0.00500*%
%ADD19R,0.02375X0.02965*%
%ADD20R,0.02965X0.02375*%
%ADD21R,0.12611X0.12611*%
%ADD22C,0.11300*%
%ADD23C,0.04737*%
%ADD24C,0.05000*%
%ADD25C,0.06706*%
D10*
X0073500Y0051904D03*
X0073500Y0058596D03*
X0073500Y0065404D03*
X0073500Y0072096D03*
X0058000Y0086404D03*
X0058000Y0093096D03*
X0150000Y0093096D03*
X0150000Y0086404D03*
X0165500Y0072096D03*
X0165500Y0065404D03*
X0165500Y0058596D03*
X0165500Y0051904D03*
X0242000Y0086404D03*
X0242000Y0093096D03*
X0257500Y0072096D03*
X0257500Y0065404D03*
X0257500Y0058596D03*
X0257500Y0051904D03*
X0334000Y0086404D03*
X0334000Y0093096D03*
X0349500Y0072096D03*
X0349500Y0065404D03*
X0349500Y0058596D03*
X0349500Y0051904D03*
X0349500Y0226904D03*
X0349500Y0233596D03*
X0349500Y0240404D03*
X0349500Y0247096D03*
X0334000Y0261404D03*
X0334000Y0268096D03*
X0257500Y0247096D03*
X0257500Y0240404D03*
X0257500Y0233596D03*
X0257500Y0226904D03*
X0242000Y0261404D03*
X0242000Y0268096D03*
X0165500Y0247096D03*
X0165500Y0240404D03*
X0165500Y0233596D03*
X0165500Y0226904D03*
X0150000Y0261404D03*
X0150000Y0268096D03*
X0073500Y0247096D03*
X0073500Y0240404D03*
X0073500Y0233596D03*
X0073500Y0226904D03*
X0058000Y0261404D03*
X0058000Y0268096D03*
D11*
X0053674Y0288377D02*
X0053674Y0291123D01*
X0056420Y0291123D01*
X0056420Y0288377D01*
X0053674Y0288377D01*
X0053674Y0290267D02*
X0056420Y0290267D01*
X0060580Y0291123D02*
X0060580Y0288377D01*
X0060580Y0291123D02*
X0063326Y0291123D01*
X0063326Y0288377D01*
X0060580Y0288377D01*
X0060580Y0290267D02*
X0063326Y0290267D01*
X0145674Y0291123D02*
X0145674Y0288377D01*
X0145674Y0291123D02*
X0148420Y0291123D01*
X0148420Y0288377D01*
X0145674Y0288377D01*
X0145674Y0290267D02*
X0148420Y0290267D01*
X0152580Y0291123D02*
X0152580Y0288377D01*
X0152580Y0291123D02*
X0155326Y0291123D01*
X0155326Y0288377D01*
X0152580Y0288377D01*
X0152580Y0290267D02*
X0155326Y0290267D01*
X0237674Y0291123D02*
X0237674Y0288377D01*
X0237674Y0291123D02*
X0240420Y0291123D01*
X0240420Y0288377D01*
X0237674Y0288377D01*
X0237674Y0290267D02*
X0240420Y0290267D01*
X0244580Y0291123D02*
X0244580Y0288377D01*
X0244580Y0291123D02*
X0247326Y0291123D01*
X0247326Y0288377D01*
X0244580Y0288377D01*
X0244580Y0290267D02*
X0247326Y0290267D01*
X0329674Y0291123D02*
X0329674Y0288377D01*
X0329674Y0291123D02*
X0332420Y0291123D01*
X0332420Y0288377D01*
X0329674Y0288377D01*
X0329674Y0290267D02*
X0332420Y0290267D01*
X0336580Y0291123D02*
X0336580Y0288377D01*
X0336580Y0291123D02*
X0339326Y0291123D01*
X0339326Y0288377D01*
X0336580Y0288377D01*
X0336580Y0290267D02*
X0339326Y0290267D01*
X0336580Y0116123D02*
X0336580Y0113377D01*
X0336580Y0116123D02*
X0339326Y0116123D01*
X0339326Y0113377D01*
X0336580Y0113377D01*
X0336580Y0115267D02*
X0339326Y0115267D01*
X0329674Y0116123D02*
X0329674Y0113377D01*
X0329674Y0116123D02*
X0332420Y0116123D01*
X0332420Y0113377D01*
X0329674Y0113377D01*
X0329674Y0115267D02*
X0332420Y0115267D01*
X0244580Y0116123D02*
X0244580Y0113377D01*
X0244580Y0116123D02*
X0247326Y0116123D01*
X0247326Y0113377D01*
X0244580Y0113377D01*
X0244580Y0115267D02*
X0247326Y0115267D01*
X0237674Y0116123D02*
X0237674Y0113377D01*
X0237674Y0116123D02*
X0240420Y0116123D01*
X0240420Y0113377D01*
X0237674Y0113377D01*
X0237674Y0115267D02*
X0240420Y0115267D01*
X0152580Y0116123D02*
X0152580Y0113377D01*
X0152580Y0116123D02*
X0155326Y0116123D01*
X0155326Y0113377D01*
X0152580Y0113377D01*
X0152580Y0115267D02*
X0155326Y0115267D01*
X0145674Y0116123D02*
X0145674Y0113377D01*
X0145674Y0116123D02*
X0148420Y0116123D01*
X0148420Y0113377D01*
X0145674Y0113377D01*
X0145674Y0115267D02*
X0148420Y0115267D01*
X0060580Y0116123D02*
X0060580Y0113377D01*
X0060580Y0116123D02*
X0063326Y0116123D01*
X0063326Y0113377D01*
X0060580Y0113377D01*
X0060580Y0115267D02*
X0063326Y0115267D01*
X0053674Y0116123D02*
X0053674Y0113377D01*
X0053674Y0116123D02*
X0056420Y0116123D01*
X0056420Y0113377D01*
X0053674Y0113377D01*
X0053674Y0115267D02*
X0056420Y0115267D01*
D12*
X0033500Y0051750D03*
X0043500Y0051750D03*
X0053500Y0051750D03*
X0063500Y0051750D03*
X0083500Y0051750D03*
X0093500Y0051750D03*
X0103500Y0051750D03*
X0113500Y0051750D03*
X0125500Y0051750D03*
X0135500Y0051750D03*
X0145500Y0051750D03*
X0155500Y0051750D03*
X0175500Y0051750D03*
X0185500Y0051750D03*
X0195500Y0051750D03*
X0205500Y0051750D03*
X0217500Y0051750D03*
X0227500Y0051750D03*
X0237500Y0051750D03*
X0247500Y0051750D03*
X0267500Y0051750D03*
X0277500Y0051750D03*
X0287500Y0051750D03*
X0297500Y0051750D03*
X0309500Y0051750D03*
X0319500Y0051750D03*
X0329500Y0051750D03*
X0339500Y0051750D03*
X0359500Y0051750D03*
X0369500Y0051750D03*
X0379500Y0051750D03*
X0389500Y0051750D03*
X0389500Y0226750D03*
X0379500Y0226750D03*
X0369500Y0226750D03*
X0359500Y0226750D03*
X0339500Y0226750D03*
X0329500Y0226750D03*
X0319500Y0226750D03*
X0309500Y0226750D03*
X0297500Y0226750D03*
X0287500Y0226750D03*
X0277500Y0226750D03*
X0267500Y0226750D03*
X0247500Y0226750D03*
X0237500Y0226750D03*
X0227500Y0226750D03*
X0217500Y0226750D03*
X0205500Y0226750D03*
X0195500Y0226750D03*
X0185500Y0226750D03*
X0175500Y0226750D03*
X0155500Y0226750D03*
X0145500Y0226750D03*
X0135500Y0226750D03*
X0125500Y0226750D03*
X0113500Y0226750D03*
X0103500Y0226750D03*
X0093500Y0226750D03*
X0083500Y0226750D03*
X0063500Y0226750D03*
X0053500Y0226750D03*
X0043500Y0226750D03*
X0033500Y0226750D03*
D13*
X0034031Y0258226D03*
X0034031Y0280274D03*
X0112969Y0280274D03*
X0126031Y0280274D03*
X0126031Y0258226D03*
X0112969Y0258226D03*
X0204969Y0258226D03*
X0218031Y0258226D03*
X0218031Y0280274D03*
X0204969Y0280274D03*
X0296969Y0280274D03*
X0310031Y0280274D03*
X0310031Y0258226D03*
X0296969Y0258226D03*
X0388969Y0258226D03*
X0388969Y0280274D03*
X0388969Y0105274D03*
X0388969Y0083226D03*
X0310031Y0083226D03*
X0296969Y0083226D03*
X0296969Y0105274D03*
X0310031Y0105274D03*
X0218031Y0105274D03*
X0204969Y0105274D03*
X0204969Y0083226D03*
X0218031Y0083226D03*
X0126031Y0083226D03*
X0112969Y0083226D03*
X0112969Y0105274D03*
X0126031Y0105274D03*
X0034031Y0105274D03*
X0034031Y0083226D03*
D14*
X0048500Y0088344D03*
X0048500Y0092281D03*
X0048500Y0096219D03*
X0048500Y0100156D03*
X0098500Y0100156D03*
X0098500Y0096219D03*
X0098500Y0092281D03*
X0098500Y0088344D03*
X0140500Y0088344D03*
X0140500Y0092281D03*
X0140500Y0096219D03*
X0140500Y0100156D03*
X0190500Y0100156D03*
X0190500Y0096219D03*
X0190500Y0092281D03*
X0190500Y0088344D03*
X0232500Y0088344D03*
X0232500Y0092281D03*
X0232500Y0096219D03*
X0232500Y0100156D03*
X0282500Y0100156D03*
X0282500Y0096219D03*
X0282500Y0092281D03*
X0282500Y0088344D03*
X0324500Y0088344D03*
X0324500Y0092281D03*
X0324500Y0096219D03*
X0324500Y0100156D03*
X0374500Y0100156D03*
X0374500Y0096219D03*
X0374500Y0092281D03*
X0374500Y0088344D03*
X0374500Y0263344D03*
X0374500Y0267281D03*
X0374500Y0271219D03*
X0374500Y0275156D03*
X0324500Y0275156D03*
X0324500Y0271219D03*
X0324500Y0267281D03*
X0324500Y0263344D03*
X0282500Y0263344D03*
X0282500Y0267281D03*
X0282500Y0271219D03*
X0282500Y0275156D03*
X0232500Y0275156D03*
X0232500Y0271219D03*
X0232500Y0267281D03*
X0232500Y0263344D03*
X0190500Y0263344D03*
X0190500Y0267281D03*
X0190500Y0271219D03*
X0190500Y0275156D03*
X0140500Y0275156D03*
X0140500Y0271219D03*
X0140500Y0267281D03*
X0140500Y0263344D03*
X0098500Y0263344D03*
X0098500Y0267281D03*
X0098500Y0271219D03*
X0098500Y0275156D03*
X0048500Y0275156D03*
X0048500Y0271219D03*
X0048500Y0267281D03*
X0048500Y0263344D03*
D15*
X0048346Y0251750D03*
X0041654Y0251750D03*
X0058154Y0251750D03*
X0064846Y0251750D03*
X0061846Y0284250D03*
X0055154Y0284250D03*
X0133654Y0251750D03*
X0140346Y0251750D03*
X0150154Y0251750D03*
X0156846Y0251750D03*
X0153846Y0284250D03*
X0147154Y0284250D03*
X0225654Y0251750D03*
X0232346Y0251750D03*
X0242154Y0251750D03*
X0248846Y0251750D03*
X0245846Y0284250D03*
X0239154Y0284250D03*
X0317654Y0251750D03*
X0324346Y0251750D03*
X0334154Y0251750D03*
X0340846Y0251750D03*
X0337846Y0284250D03*
X0331154Y0284250D03*
X0331154Y0109250D03*
X0337846Y0109250D03*
X0340846Y0076750D03*
X0334154Y0076750D03*
X0324346Y0076750D03*
X0317654Y0076750D03*
X0248846Y0076750D03*
X0242154Y0076750D03*
X0232346Y0076750D03*
X0225654Y0076750D03*
X0239154Y0109250D03*
X0245846Y0109250D03*
X0156846Y0076750D03*
X0150154Y0076750D03*
X0140346Y0076750D03*
X0133654Y0076750D03*
X0147154Y0109250D03*
X0153846Y0109250D03*
X0064846Y0076750D03*
X0058154Y0076750D03*
X0048346Y0076750D03*
X0041654Y0076750D03*
X0055154Y0109250D03*
X0061846Y0109250D03*
D16*
X0038500Y0121750D03*
X0108500Y0121750D03*
X0130500Y0121750D03*
X0200500Y0121750D03*
X0222500Y0121750D03*
X0292500Y0121750D03*
X0314500Y0121750D03*
X0384500Y0121750D03*
X0384500Y0296750D03*
X0314500Y0296750D03*
X0292500Y0296750D03*
X0222500Y0296750D03*
X0200500Y0296750D03*
X0130500Y0296750D03*
X0108500Y0296750D03*
X0038500Y0296750D03*
D17*
X0087000Y0287250D03*
X0091000Y0287250D03*
X0095000Y0287250D03*
X0179000Y0287250D03*
X0183000Y0287250D03*
X0187000Y0287250D03*
X0271000Y0287250D03*
X0275000Y0287250D03*
X0279000Y0287250D03*
X0363000Y0287250D03*
X0367000Y0287250D03*
X0371000Y0287250D03*
X0371000Y0112250D03*
X0367000Y0112250D03*
X0363000Y0112250D03*
X0279000Y0112250D03*
X0275000Y0112250D03*
X0271000Y0112250D03*
X0187000Y0112250D03*
X0183000Y0112250D03*
X0179000Y0112250D03*
X0095000Y0112250D03*
X0091000Y0112250D03*
X0087000Y0112250D03*
D18*
X0088250Y0112055D02*
X0093750Y0112055D01*
X0093750Y0111750D02*
X0093750Y0112750D01*
X0088250Y0112750D01*
X0088250Y0111750D01*
X0093750Y0111750D01*
X0093750Y0112553D02*
X0088250Y0112553D01*
X0180250Y0112553D02*
X0185750Y0112553D01*
X0185750Y0112750D02*
X0185750Y0111750D01*
X0180250Y0111750D01*
X0180250Y0112750D01*
X0185750Y0112750D01*
X0185750Y0112055D02*
X0180250Y0112055D01*
X0272250Y0112055D02*
X0277750Y0112055D01*
X0277750Y0111750D02*
X0277750Y0112750D01*
X0272250Y0112750D01*
X0272250Y0111750D01*
X0277750Y0111750D01*
X0277750Y0112553D02*
X0272250Y0112553D01*
X0364250Y0112553D02*
X0369750Y0112553D01*
X0369750Y0112750D02*
X0369750Y0111750D01*
X0364250Y0111750D01*
X0364250Y0112750D01*
X0369750Y0112750D01*
X0369750Y0112055D02*
X0364250Y0112055D01*
X0364250Y0286750D02*
X0364250Y0287750D01*
X0369750Y0287750D01*
X0369750Y0286750D01*
X0364250Y0286750D01*
X0364250Y0287032D02*
X0369750Y0287032D01*
X0369750Y0287531D02*
X0364250Y0287531D01*
X0277750Y0287531D02*
X0272250Y0287531D01*
X0272250Y0287750D02*
X0277750Y0287750D01*
X0277750Y0286750D01*
X0272250Y0286750D01*
X0272250Y0287750D01*
X0272250Y0287032D02*
X0277750Y0287032D01*
X0185750Y0287032D02*
X0180250Y0287032D01*
X0180250Y0286750D02*
X0180250Y0287750D01*
X0185750Y0287750D01*
X0185750Y0286750D01*
X0180250Y0286750D01*
X0180250Y0287531D02*
X0185750Y0287531D01*
X0093750Y0287531D02*
X0088250Y0287531D01*
X0088250Y0287750D02*
X0093750Y0287750D01*
X0093750Y0286750D01*
X0088250Y0286750D01*
X0088250Y0287750D01*
X0088250Y0287032D02*
X0093750Y0287032D01*
D19*
X0078618Y0278108D03*
X0076059Y0278108D03*
X0073500Y0278108D03*
X0070941Y0278108D03*
X0068382Y0278108D03*
X0068382Y0260392D03*
X0070941Y0260392D03*
X0073500Y0260392D03*
X0076059Y0260392D03*
X0078618Y0260392D03*
X0160382Y0260392D03*
X0162941Y0260392D03*
X0165500Y0260392D03*
X0168059Y0260392D03*
X0170618Y0260392D03*
X0170618Y0278108D03*
X0168059Y0278108D03*
X0165500Y0278108D03*
X0162941Y0278108D03*
X0160382Y0278108D03*
X0252382Y0278108D03*
X0254941Y0278108D03*
X0257500Y0278108D03*
X0260059Y0278108D03*
X0262618Y0278108D03*
X0262618Y0260392D03*
X0260059Y0260392D03*
X0257500Y0260392D03*
X0254941Y0260392D03*
X0252382Y0260392D03*
X0344382Y0260392D03*
X0346941Y0260392D03*
X0349500Y0260392D03*
X0352059Y0260392D03*
X0354618Y0260392D03*
X0354618Y0278108D03*
X0352059Y0278108D03*
X0349500Y0278108D03*
X0346941Y0278108D03*
X0344382Y0278108D03*
X0344382Y0103108D03*
X0346941Y0103108D03*
X0349500Y0103108D03*
X0352059Y0103108D03*
X0354618Y0103108D03*
X0354618Y0085392D03*
X0352059Y0085392D03*
X0349500Y0085392D03*
X0346941Y0085392D03*
X0344382Y0085392D03*
X0262618Y0085392D03*
X0260059Y0085392D03*
X0257500Y0085392D03*
X0254941Y0085392D03*
X0252382Y0085392D03*
X0252382Y0103108D03*
X0254941Y0103108D03*
X0257500Y0103108D03*
X0260059Y0103108D03*
X0262618Y0103108D03*
X0170618Y0103108D03*
X0168059Y0103108D03*
X0165500Y0103108D03*
X0162941Y0103108D03*
X0160382Y0103108D03*
X0160382Y0085392D03*
X0162941Y0085392D03*
X0165500Y0085392D03*
X0168059Y0085392D03*
X0170618Y0085392D03*
X0078618Y0085392D03*
X0076059Y0085392D03*
X0073500Y0085392D03*
X0070941Y0085392D03*
X0068382Y0085392D03*
X0068382Y0103108D03*
X0070941Y0103108D03*
X0073500Y0103108D03*
X0076059Y0103108D03*
X0078618Y0103108D03*
D20*
X0082358Y0099368D03*
X0082358Y0096809D03*
X0082358Y0094250D03*
X0082358Y0091691D03*
X0082358Y0089132D03*
X0064642Y0089132D03*
X0064642Y0091691D03*
X0064642Y0094250D03*
X0064642Y0096809D03*
X0064642Y0099368D03*
X0156642Y0099368D03*
X0156642Y0096809D03*
X0156642Y0094250D03*
X0156642Y0091691D03*
X0156642Y0089132D03*
X0174358Y0089132D03*
X0174358Y0091691D03*
X0174358Y0094250D03*
X0174358Y0096809D03*
X0174358Y0099368D03*
X0248642Y0099368D03*
X0248642Y0096809D03*
X0248642Y0094250D03*
X0248642Y0091691D03*
X0248642Y0089132D03*
X0266358Y0089132D03*
X0266358Y0091691D03*
X0266358Y0094250D03*
X0266358Y0096809D03*
X0266358Y0099368D03*
X0340642Y0099368D03*
X0340642Y0096809D03*
X0340642Y0094250D03*
X0340642Y0091691D03*
X0340642Y0089132D03*
X0358358Y0089132D03*
X0358358Y0091691D03*
X0358358Y0094250D03*
X0358358Y0096809D03*
X0358358Y0099368D03*
X0358358Y0264132D03*
X0358358Y0266691D03*
X0358358Y0269250D03*
X0358358Y0271809D03*
X0358358Y0274368D03*
X0340642Y0274368D03*
X0340642Y0271809D03*
X0340642Y0269250D03*
X0340642Y0266691D03*
X0340642Y0264132D03*
X0266358Y0264132D03*
X0266358Y0266691D03*
X0266358Y0269250D03*
X0266358Y0271809D03*
X0266358Y0274368D03*
X0248642Y0274368D03*
X0248642Y0271809D03*
X0248642Y0269250D03*
X0248642Y0266691D03*
X0248642Y0264132D03*
X0174358Y0264132D03*
X0174358Y0266691D03*
X0174358Y0269250D03*
X0174358Y0271809D03*
X0174358Y0274368D03*
X0156642Y0274368D03*
X0156642Y0271809D03*
X0156642Y0269250D03*
X0156642Y0266691D03*
X0156642Y0264132D03*
X0082358Y0264132D03*
X0082358Y0266691D03*
X0082358Y0269250D03*
X0082358Y0271809D03*
X0082358Y0274368D03*
X0064642Y0274368D03*
X0064642Y0271809D03*
X0064642Y0269250D03*
X0064642Y0266691D03*
X0064642Y0264132D03*
D21*
X0073500Y0269250D03*
X0165500Y0269250D03*
X0257500Y0269250D03*
X0349500Y0269250D03*
X0349500Y0094250D03*
X0257500Y0094250D03*
X0165500Y0094250D03*
X0073500Y0094250D03*
D22*
X0046500Y0141750D03*
X0042500Y0194750D03*
X0100500Y0141750D03*
X0138500Y0141750D03*
X0134500Y0194750D03*
X0104500Y0194750D03*
X0192500Y0141750D03*
X0230500Y0141750D03*
X0226500Y0194750D03*
X0196500Y0194750D03*
X0284500Y0141750D03*
X0322500Y0141750D03*
X0318500Y0194750D03*
X0288500Y0194750D03*
X0380500Y0194750D03*
X0376500Y0141750D03*
X0376500Y0316750D03*
X0380500Y0369750D03*
X0322500Y0316750D03*
X0284500Y0316750D03*
X0288500Y0369750D03*
X0318500Y0369750D03*
X0230500Y0316750D03*
X0192500Y0316750D03*
X0196500Y0369750D03*
X0226500Y0369750D03*
X0138500Y0316750D03*
X0100500Y0316750D03*
X0104500Y0369750D03*
X0134500Y0369750D03*
X0042500Y0369750D03*
X0046500Y0316750D03*
D23*
X0055500Y0403000D03*
X0367500Y0403000D03*
D24*
X0051935Y0020500D02*
X0051937Y0020619D01*
X0051943Y0020738D01*
X0051953Y0020857D01*
X0051967Y0020975D01*
X0051985Y0021093D01*
X0052006Y0021210D01*
X0052032Y0021326D01*
X0052062Y0021442D01*
X0052095Y0021556D01*
X0052132Y0021669D01*
X0052173Y0021781D01*
X0052218Y0021892D01*
X0052266Y0022001D01*
X0052318Y0022108D01*
X0052374Y0022213D01*
X0052433Y0022317D01*
X0052495Y0022418D01*
X0052561Y0022518D01*
X0052630Y0022615D01*
X0052702Y0022709D01*
X0052778Y0022802D01*
X0052856Y0022891D01*
X0052937Y0022978D01*
X0053022Y0023063D01*
X0053109Y0023144D01*
X0053198Y0023222D01*
X0053291Y0023298D01*
X0053385Y0023370D01*
X0053482Y0023439D01*
X0053582Y0023505D01*
X0053683Y0023567D01*
X0053787Y0023626D01*
X0053892Y0023682D01*
X0053999Y0023734D01*
X0054108Y0023782D01*
X0054219Y0023827D01*
X0054331Y0023868D01*
X0054444Y0023905D01*
X0054558Y0023938D01*
X0054674Y0023968D01*
X0054790Y0023994D01*
X0054907Y0024015D01*
X0055025Y0024033D01*
X0055143Y0024047D01*
X0055262Y0024057D01*
X0055381Y0024063D01*
X0055500Y0024065D01*
X0055619Y0024063D01*
X0055738Y0024057D01*
X0055857Y0024047D01*
X0055975Y0024033D01*
X0056093Y0024015D01*
X0056210Y0023994D01*
X0056326Y0023968D01*
X0056442Y0023938D01*
X0056556Y0023905D01*
X0056669Y0023868D01*
X0056781Y0023827D01*
X0056892Y0023782D01*
X0057001Y0023734D01*
X0057108Y0023682D01*
X0057213Y0023626D01*
X0057317Y0023567D01*
X0057418Y0023505D01*
X0057518Y0023439D01*
X0057615Y0023370D01*
X0057709Y0023298D01*
X0057802Y0023222D01*
X0057891Y0023144D01*
X0057978Y0023063D01*
X0058063Y0022978D01*
X0058144Y0022891D01*
X0058222Y0022802D01*
X0058298Y0022709D01*
X0058370Y0022615D01*
X0058439Y0022518D01*
X0058505Y0022418D01*
X0058567Y0022317D01*
X0058626Y0022213D01*
X0058682Y0022108D01*
X0058734Y0022001D01*
X0058782Y0021892D01*
X0058827Y0021781D01*
X0058868Y0021669D01*
X0058905Y0021556D01*
X0058938Y0021442D01*
X0058968Y0021326D01*
X0058994Y0021210D01*
X0059015Y0021093D01*
X0059033Y0020975D01*
X0059047Y0020857D01*
X0059057Y0020738D01*
X0059063Y0020619D01*
X0059065Y0020500D01*
X0059063Y0020381D01*
X0059057Y0020262D01*
X0059047Y0020143D01*
X0059033Y0020025D01*
X0059015Y0019907D01*
X0058994Y0019790D01*
X0058968Y0019674D01*
X0058938Y0019558D01*
X0058905Y0019444D01*
X0058868Y0019331D01*
X0058827Y0019219D01*
X0058782Y0019108D01*
X0058734Y0018999D01*
X0058682Y0018892D01*
X0058626Y0018787D01*
X0058567Y0018683D01*
X0058505Y0018582D01*
X0058439Y0018482D01*
X0058370Y0018385D01*
X0058298Y0018291D01*
X0058222Y0018198D01*
X0058144Y0018109D01*
X0058063Y0018022D01*
X0057978Y0017937D01*
X0057891Y0017856D01*
X0057802Y0017778D01*
X0057709Y0017702D01*
X0057615Y0017630D01*
X0057518Y0017561D01*
X0057418Y0017495D01*
X0057317Y0017433D01*
X0057213Y0017374D01*
X0057108Y0017318D01*
X0057001Y0017266D01*
X0056892Y0017218D01*
X0056781Y0017173D01*
X0056669Y0017132D01*
X0056556Y0017095D01*
X0056442Y0017062D01*
X0056326Y0017032D01*
X0056210Y0017006D01*
X0056093Y0016985D01*
X0055975Y0016967D01*
X0055857Y0016953D01*
X0055738Y0016943D01*
X0055619Y0016937D01*
X0055500Y0016935D01*
X0055381Y0016937D01*
X0055262Y0016943D01*
X0055143Y0016953D01*
X0055025Y0016967D01*
X0054907Y0016985D01*
X0054790Y0017006D01*
X0054674Y0017032D01*
X0054558Y0017062D01*
X0054444Y0017095D01*
X0054331Y0017132D01*
X0054219Y0017173D01*
X0054108Y0017218D01*
X0053999Y0017266D01*
X0053892Y0017318D01*
X0053787Y0017374D01*
X0053683Y0017433D01*
X0053582Y0017495D01*
X0053482Y0017561D01*
X0053385Y0017630D01*
X0053291Y0017702D01*
X0053198Y0017778D01*
X0053109Y0017856D01*
X0053022Y0017937D01*
X0052937Y0018022D01*
X0052856Y0018109D01*
X0052778Y0018198D01*
X0052702Y0018291D01*
X0052630Y0018385D01*
X0052561Y0018482D01*
X0052495Y0018582D01*
X0052433Y0018683D01*
X0052374Y0018787D01*
X0052318Y0018892D01*
X0052266Y0018999D01*
X0052218Y0019108D01*
X0052173Y0019219D01*
X0052132Y0019331D01*
X0052095Y0019444D01*
X0052062Y0019558D01*
X0052032Y0019674D01*
X0052006Y0019790D01*
X0051985Y0019907D01*
X0051967Y0020025D01*
X0051953Y0020143D01*
X0051943Y0020262D01*
X0051937Y0020381D01*
X0051935Y0020500D01*
D25*
X0055500Y0020500D03*
M02*
