%
M48
M72
T01C0.0150
T02C0.0400
T03C0.0700
T04C0.1300
%
T01
X5825Y6675
X6350Y7175
X6850Y7025
X7850Y7025
X7850Y6525
X10000Y7875
X9125Y8850
X9250Y9225
X9350Y9675
X8575Y10250
X8950Y10625
X9700Y10650
X8150Y10625
X5850Y10025
X5350Y9225
X5350Y7675
X14550Y7675
X15025Y6675
X15550Y7175
X16050Y7025
X17050Y7025
X17050Y6525
X19200Y7875
X18325Y8850
X18450Y9225
X18550Y9675
X17775Y10250
X18150Y10625
X17350Y10625
X18900Y10650
X15050Y10025
X14550Y9225
X23750Y9225
X24250Y10025
X26550Y10625
X26975Y10250
X27350Y10625
X28100Y10650
X27750Y9675
X27650Y9225
X27525Y8850
X28400Y7875
X26250Y7025
X26250Y6525
X25250Y7025
X24750Y7175
X24225Y6675
X23750Y7675
X32950Y7675
X33425Y6675
X33950Y7175
X34450Y7025
X35450Y7025
X35450Y6525
X37600Y7875
X36725Y8850
X36850Y9225
X36950Y9675
X36175Y10250
X36550Y10625
X37300Y10650
X35750Y10625
X33450Y10025
X32950Y9225
X35450Y24025
X35450Y24525
X34450Y24525
X33950Y24675
X33425Y24175
X32950Y25175
X32950Y26725
X33450Y27525
X35750Y28125
X36175Y27750
X36550Y28125
X37300Y28150
X36950Y27175
X36850Y26725
X36725Y26350
X37600Y25375
X28400Y25375
X27525Y26350
X27650Y26725
X27750Y27175
X26975Y27750
X27350Y28125
X28100Y28150
X26550Y28125
X24250Y27525
X23750Y26725
X23750Y25175
X24225Y24175
X24750Y24675
X25250Y24525
X26250Y24525
X26250Y24025
X19200Y25375
X18325Y26350
X18450Y26725
X18550Y27175
X17775Y27750
X18150Y28125
X17350Y28125
X18900Y28150
X17050Y24525
X17050Y24025
X16050Y24525
X15550Y24675
X15025Y24175
X14550Y25175
X14550Y26725
X15050Y27525
X10000Y25375
X9125Y26350
X9250Y26725
X9350Y27175
X8575Y27750
X8950Y28125
X9700Y28150
X8150Y28125
X5850Y27525
X5350Y26725
X5350Y25175
X5825Y24175
X6350Y24675
X6850Y24525
X7850Y24525
X7850Y24025
T02
X3350Y5175
X4350Y5175
X5350Y5175
X6350Y5175
X8350Y5175
X9350Y5175
X10350Y5175
X11350Y5175
X12550Y5175
X13550Y5175
X14550Y5175
X15550Y5175
X17550Y5175
X18550Y5175
X19550Y5175
X20550Y5175
X21750Y5175
X22750Y5175
X23750Y5175
X24750Y5175
X26750Y5175
X27750Y5175
X28750Y5175
X29750Y5175
X30950Y5175
X31950Y5175
X32950Y5175
X33950Y5175
X35950Y5175
X36950Y5175
X37950Y5175
X38950Y5175
X38950Y22675
X37950Y22675
X36950Y22675
X35950Y22675
X33950Y22675
X32950Y22675
X31950Y22675
X30950Y22675
X29750Y22675
X28750Y22675
X27750Y22675
X26750Y22675
X24750Y22675
X23750Y22675
X22750Y22675
X21750Y22675
X20550Y22675
X19550Y22675
X18550Y22675
X17550Y22675
X15550Y22675
X14550Y22675
X13550Y22675
X12550Y22675
X11350Y22675
X10350Y22675
X9350Y22675
X8350Y22675
X6350Y22675
X5350Y22675
X4350Y22675
X3350Y22675
T03
X4250Y19475
X4650Y14175
X10050Y14175
X13850Y14175
X13450Y19475
X10450Y19475
X19250Y14175
X23050Y14175
X22650Y19475
X19650Y19475
X28450Y14175
X32250Y14175
X31850Y19475
X28850Y19475
X38050Y19475
X37650Y14175
X37650Y31675
X38050Y36975
X32250Y31675
X28450Y31675
X28850Y36975
X31850Y36975
X23050Y31675
X19250Y31675
X19650Y36975
X22650Y36975
X13850Y31675
X10050Y31675
X10450Y36975
X13450Y36975
X4250Y36975
X4650Y31675
T04
X3850Y29675
X10850Y29675
X13050Y29675
X20050Y29675
X22250Y29675
X29250Y29675
X31450Y29675
X38450Y29675
X38450Y12175
X31450Y12175
X29250Y12175
X22250Y12175
X20050Y12175
X13050Y12175
X10850Y12175
X3850Y12175
M30
